<svg xmlns="http://www.w3.org/2000/svg" width="245" height="342" viewBox="0 0 245 342" role="img" aria-label="Tipo Dragón">
<defs><linearGradient id="f" x1="0" y1="0" x2="1" y2="1"><stop offset="0" stop-color="#e9c46a"/><stop offset="1" stop-color="#8a6d1d"/></linearGradient>
<radialGradient id="c" cx="0.4" cy="0.35" r="0.7"><stop offset="0" stop-color="#fff"/><stop offset="1" stop-color="#e9c46a"/></radialGradient></defs>
<rect width="245" height="342" rx="14" fill="#f1d36b"/>
<rect x="9" y="9" width="227" height="324" rx="9" fill="url(#f)"/>
<circle cx="122.5" cy="150" r="72" fill="url(#c)" stroke="#fff" stroke-width="6"/>
<g transform="translate(122.5 150) scale(1.35)" fill="#7a5c12" fill-rule="evenodd"><path d="M-22,30 C-30,4 -20,-22 0,-36 C-8,-18 -8,-4 -2,8 C4,-10 14,-22 30,-26 C18,-12 14,4 18,20 C22,10 28,4 34,2 C30,16 22,30 8,36 C-4,40 -16,38 -22,30 Z"/></g>
<rect x="24" y="262" width="197" height="50" rx="8" fill="#fff" fill-opacity="0.88"/>
<text x="122.5" y="286" text-anchor="middle" font-family="Fredoka, Inter, Arial, sans-serif" font-size="20" font-weight="700" fill="#7a5c12">Dragón</text>
<text x="122.5" y="304" text-anchor="middle" font-family="Inter, Arial, sans-serif" font-size="12" fill="#495057">tipo</text>
</svg>
